<svg xmlns="http://www.w3.org/2000/svg" viewBox="0 0 132.59 132.59"><defs><style>.cls-1{fill:#6a67ef;}</style></defs><title>aiIcon</title><g id="Camada_2" data-name="Camada 2"><g id="Camada_1-2" data-name="Camada 1"><path d="M84.27,80.33l-6.16,20.53H90.56Zm0,0-6.16,20.53H90.56Z"/><polygon class="cls-1" points="84.27 80.33 90.56 100.86 78.11 100.86 84.27 80.33"/><path class="cls-1" d="M0,0V132.59H132.59V0ZM96.44,117.94l-3.65-9.54H75.41l-3.12,9.54H62L79.06,73.06H90l17.31,44.88Zm23.91,0h-8.71V87.87h8.71Zm-.75-38.81a5,5,0,0,1-3.63,1.5,4.86,4.86,0,0,1-3.59-1.53A5.09,5.09,0,0,1,116,70.43a5,5,0,0,1,3.63,1.48,5,5,0,0,1,0,7.22Z"/></g></g></svg>