<svg xmlns="http://www.w3.org/2000/svg" viewBox="0 0 141.03 141.03"><defs><style>.cls-1{fill:#22b573;}.cls-2{fill:#fff;}</style></defs><title>corelIcon</title><g id="Camada_2" data-name="Camada 2"><g id="Camada_1-2" data-name="Camada 1"><path class="cls-1" d="M136.09,117.68a23.9,23.9,0,0,1-18.41,18.41h0a227.47,227.47,0,0,1-94.32,0h0A23.88,23.88,0,0,1,5,117.68H5A227.13,227.13,0,0,1,5,23.36H5A23.85,23.85,0,0,1,23.36,5h0a227.13,227.13,0,0,1,94.32,0h0a23.88,23.88,0,0,1,18.41,18.41h0a227.47,227.47,0,0,1,0,94.32Z"/><path class="cls-2" d="M70.52,86.2h0L53.05,63.93c-11.28-14.37-1.68-35.78,16.58-36.4l.89,0h0l.88,0c18.26.62,27.86,22,16.59,36.4Z"/><rect class="cls-2" x="50.63" y="93.28" width="39.77" height="20.24"/></g></g></svg>