<svg xmlns="http://www.w3.org/2000/svg" viewBox="0 0 141.03 141.03"><defs><style>.cls-1{fill:#c0392b;}.cls-2{fill:none;stroke:#fff;stroke-linecap:round;stroke-linejoin:round;stroke-width:2px;}.cls-3{fill:#fff;}</style></defs><title>javaIcon</title><g id="Camada_2" data-name="Camada 2"><g id="Camada_1-2" data-name="Camada 1"><path class="cls-1" d="M136.09,117.68a23.9,23.9,0,0,1-18.41,18.41h0a227.47,227.47,0,0,1-94.32,0h0A23.88,23.88,0,0,1,5,117.68H5A227.13,227.13,0,0,1,5,23.36H5A23.85,23.85,0,0,1,23.36,5h0a227.13,227.13,0,0,1,94.32,0h0a23.88,23.88,0,0,1,18.41,18.41h0a227.47,227.47,0,0,1,0,94.32Z"/><path class="cls-2" d="M59.58,29.27c-1.32,3.17-1.07,5.27-.55,6.62.79,2.08,2.3,2.7,2.81,4.82a7.36,7.36,0,0,1-1,5.19"/><path class="cls-2" d="M69.14,22.83c-1.32,3.16-1.07,5.26-.56,6.61.79,2.08,2.31,2.7,2.82,4.82a7.42,7.42,0,0,1-1,5.19"/><path class="cls-2" d="M78.1,29.27c-1.27,3.05-1,5.06-.53,6.37.76,2,2.22,2.59,2.71,4.63a7.11,7.11,0,0,1-1,5"/><path class="cls-3" d="M96.59,64.18A46.07,46.07,0,0,1,92,90.5a32.15,32.15,0,0,1-8.84,10.87,23.84,23.84,0,0,1-6.36,3.55,22.33,22.33,0,0,1-7.3,1.32,22.07,22.07,0,0,1-7.3-1.32,24.06,24.06,0,0,1-6.37-3.55A32.17,32.17,0,0,1,47,90.5a46.06,46.06,0,0,1-4.62-26.32c1.07,8.77,3.53,17.25,8,24.38a32.34,32.34,0,0,0,8.28,9,17.83,17.83,0,0,0,21.7,0,32,32,0,0,0,8.28-9C93.07,81.43,95.53,73,96.59,64.18Z"/><path class="cls-3" d="M96.59,64.18a4.09,4.09,0,0,1-.06,2,6.72,6.72,0,0,1-.94,1.92,12.58,12.58,0,0,1-3,3,28,28,0,0,1-7.32,3.66,49.77,49.77,0,0,1-15.83,2.47A49.76,49.76,0,0,1,53.63,74.8a27.61,27.61,0,0,1-7.32-3.67,13,13,0,0,1-3-3,7,7,0,0,1-.93-1.93,4.09,4.09,0,0,1-.06-2A5,5,0,0,0,44.52,67a14.79,14.79,0,0,0,3.2,1.55,40.9,40.9,0,0,0,7.07,1.68,98.28,98.28,0,0,0,14.67,1,97,97,0,0,0,14.67-1,40,40,0,0,0,7.07-1.69A14.75,14.75,0,0,0,94.4,67,5.08,5.08,0,0,0,96.59,64.18Z"/><path class="cls-3" d="M96.59,65.92a1.85,1.85,0,0,0-1.15-1.18,8.74,8.74,0,0,0-1.6-.59,28.15,28.15,0,0,0-3.41-.67c-2.3-.35-4.63-.53-7-.7s-4.66-.27-7-.31-4.67-.11-7-.09-4.68,0-7,.1-4.67.18-7,.31-4.66.34-7,.69a28.18,28.18,0,0,0-3.41.68,8.4,8.4,0,0,0-1.61.59,1.82,1.82,0,0,0-1.14,1.17,2,2,0,0,1,.89-1.55,9.53,9.53,0,0,1,1.56-1,24.44,24.44,0,0,1,3.38-1.33,50.46,50.46,0,0,1,7-1.59c2.36-.41,4.75-.62,7.13-.82s4.76-.23,7.15-.26a93.66,93.66,0,0,1,14.28,1.08,53.5,53.5,0,0,1,7,1.59,25,25,0,0,1,3.38,1.33,9,9,0,0,1,1.55,1A2,2,0,0,1,96.59,65.92Z"/><path class="cls-3" d="M96.59,64.18a9.45,9.45,0,0,1,7.69,2.4A10.06,10.06,0,0,1,106.8,70a10.37,10.37,0,0,1,0,8.45,10.1,10.1,0,0,1-2.52,3.46,9.4,9.4,0,0,1-7.69,2.39,11.1,11.1,0,0,0,6.59-3.49,9.85,9.85,0,0,0,0-13.16A11.11,11.11,0,0,0,96.59,64.18Z"/></g></g></svg>