<svg xmlns="http://www.w3.org/2000/svg" viewBox="0 0 141.03 141.03"><defs><style>.cls-1{fill:#0030b5;}.cls-2{fill:#fff;}</style></defs><title>jsIcon</title><g id="Camada_2" data-name="Camada 2"><g id="Camada_1-2" data-name="Camada 1"><path class="cls-1" d="M136.09,117.68a23.9,23.9,0,0,1-18.41,18.41h0a227.47,227.47,0,0,1-94.32,0h0A23.88,23.88,0,0,1,5,117.68H5A227.13,227.13,0,0,1,5,23.36H5A23.85,23.85,0,0,1,23.36,5h0a227.13,227.13,0,0,1,94.32,0h0a23.88,23.88,0,0,1,18.41,18.41h0a227.47,227.47,0,0,1,0,94.32Z"/><path class="cls-2" d="M92.09,87v27.44a45.34,45.34,0,0,1-.37,6.89A11.77,11.77,0,0,1,90.5,125a8.24,8.24,0,0,1-3.69,3.53,13.37,13.37,0,0,1-5.9,1.19,10.61,10.61,0,0,1-7-2.19,10.27,10.27,0,0,1-3.37-6.43L77,118.07a5.92,5.92,0,0,0,1,3,2.59,2.59,0,0,0,2.15,1,2.42,2.42,0,0,0,2.36-1.24c.44-.82.65-2.67.65-5.53V87Z"/><path class="cls-2" d="M98.38,123.36l5-5.61a7.57,7.57,0,0,0,3,3.63A8.53,8.53,0,0,0,111,122.7a7.59,7.59,0,0,0,5-1.48,4.86,4.86,0,0,0,1.82-4c0-2-2-3.94-6.06-5.89-1.31-.63-2.34-1.14-3.1-1.54q-5.47-2.85-7.57-5.56A10.25,10.25,0,0,1,99,97.77,10.45,10.45,0,0,1,103,89.3Q107.13,86,113.64,86a15,15,0,0,1,6.53,1.32A13.21,13.21,0,0,1,125,91.45l-5.26,5a6.54,6.54,0,0,0-2.49-2.72,7.48,7.48,0,0,0-3.75-.89,6.56,6.56,0,0,0-4.27,1.32,4.23,4.23,0,0,0-1.62,3.43q0,3.3,6.43,6c.86.36,1.51.65,2,.86a21.93,21.93,0,0,1,7.84,5.46,10.53,10.53,0,0,1,2.55,7,11.81,11.81,0,0,1-4,9.35q-4,3.48-10.75,3.48a18.63,18.63,0,0,1-8.19-1.65A11.07,11.07,0,0,1,98.38,123.36Z"/></g></g></svg>