<svg xmlns="http://www.w3.org/2000/svg" viewBox="0 0 88.94 34.11"><defs><style>.cls-1{fill:#6a67ef;}</style></defs><title>phpIcon_3</title><g id="Camada_2" data-name="Camada 2"><g id="Camada_1-2" data-name="Camada 1"><path class="cls-1" d="M22.22,2.56Q19,0,12.3,0H3.91L0,34.11H7.34l3.91-13h2q5.7,0,8.93-2.82a9.81,9.81,0,0,0,3.23-7.78Q25.42,5.12,22.22,2.56ZM6.54,13.68A1.47,1.47,0,1,1,8,12.21,1.47,1.47,0,0,1,6.54,13.68Zm10.1.49A6.36,6.36,0,0,1,12.3,15.4H11.25v-10H12.3a6.65,6.65,0,0,1,4.34,1.16A4.56,4.56,0,0,1,18,10.21,5.15,5.15,0,0,1,16.64,14.17Z"/><path class="cls-1" d="M30.45,34.11V0h7.3V13.68H52.54V0h7.29V34.11H52.54V19.85H37.75V34.11Z"/><path class="cls-1" d="M67.43,34.11V0h8.39q6.71,0,9.91,2.56t3.21,7.93a9.81,9.81,0,0,1-3.23,7.78q-3.22,2.82-8.94,2.82h-2v13ZM74.77,15.4h1a6.31,6.31,0,0,0,4.33-1.23,5.15,5.15,0,0,0,1.35-4,4.56,4.56,0,0,0-1.35-3.67,6.6,6.6,0,0,0-4.33-1.16h-1Z"/></g></g></svg>